<svg xmlns="http://www.w3.org/2000/svg" width="60" height="50" viewBox="0 0 60 50">
    <g fill="#E4E9F0" fill-rule="nonzero">
        <path d="M58.889 6.667H26.15L22.036.495A1.11 1.11 0 0 0 21.11 0h-20A1.11 1.11 0 0 0 0 1.111v43.337A5.556 5.556 0 0 0 5.549 50h48.902C57.511 50 60 47.51 60 44.448V7.778a1.11 1.11 0 0 0-1.111-1.111zm-1.111 4.444H2.222V8.89h55.556v2.222zM2.222 2.222h18.294l2.963 4.445H2.222V2.222zm55.556 42.226a3.332 3.332 0 0 1-3.327 3.33H5.549a3.332 3.332 0 0 1-3.327-3.33V13.333h55.556v31.115z"/>
        <path d="M23.333 30h3.334v10a1.11 1.11 0 0 0 1.11 1.111h4.445A1.11 1.11 0 0 0 33.333 40V30h3.334a1.11 1.11 0 0 0 .952-1.683l-6.666-11.111c-.402-.668-1.504-.668-1.906 0l-6.666 11.111A1.11 1.11 0 0 0 23.333 30zM30 19.937l4.704 7.84h-2.482a1.11 1.11 0 0 0-1.11 1.112v10h-2.223v-10a1.11 1.11 0 0 0-1.111-1.111h-2.482L30 19.938zM17.778 42.222h24.444v2.222H17.778z"/>
    </g>
</svg>
